HIERARCHY
ROOT Hips
{
	OFFSET -0.001795 -0.223333 0.028219
	CHANNELS 6 Xposition Yposition Zposition Zrotation Yrotation Xrotation 
	JOINT LeftUpLeg
	{
		OFFSET 0.069520 -0.091406 -0.006815
		CHANNELS 3 Zrotation Yrotation Xrotation
		JOINT LeftLeg
		{
			OFFSET 0.034277 -0.375199 -0.004496
			CHANNELS 3 Zrotation Yrotation Xrotation
			JOINT LeftFoot
			{
				OFFSET -0.013596 -0.397961 -0.043693
				CHANNELS 3 Zrotation Yrotation Xrotation
				JOINT LeftToe
				{
					OFFSET 0.026358 -0.055791 0.119288
					CHANNELS 3 Zrotation Yrotation Xrotation
					End Site
					{
						OFFSET 0.000000 0.000000 0.000000
					}
				}
			}
		}
	}
	JOINT RightUpLeg
	{
		OFFSET -0.067670 -0.090522 -0.004320
		CHANNELS 3 Zrotation Yrotation Xrotation
		JOINT RightLeg
		{
			OFFSET -0.038290 -0.382569 -0.008850
			CHANNELS 3 Zrotation Yrotation Xrotation
			JOINT RightFoot
			{
				OFFSET 0.015774 -0.398415 -0.042312
				CHANNELS 3 Zrotation Yrotation Xrotation
				JOINT RightToe
				{
					OFFSET -0.025372 -0.048144 0.123348
					CHANNELS 3 Zrotation Yrotation Xrotation
					End Site
					{
						OFFSET 0.000000 0.000000 0.000000
					}
				}
			}
		}
	}
	JOINT Spine
	{
		OFFSET -0.002533 0.108963 -0.026696
		CHANNELS 3 Zrotation Yrotation Xrotation
		JOINT Spine1
		{
			OFFSET 0.005487 0.135180 0.001092
			CHANNELS 3 Zrotation Yrotation Xrotation
			JOINT Spine2
			{
				OFFSET 0.001457 0.052922 0.025425
				CHANNELS 3 Zrotation Yrotation Xrotation
				JOINT Neck
				{
					OFFSET -0.002778 0.213870 -0.042857
					CHANNELS 3 Zrotation Yrotation Xrotation
					JOINT Head
					{
						OFFSET 0.005152 0.064970 0.051349
						CHANNELS 3 Zrotation Yrotation Xrotation
						End Site
						{
							OFFSET 0.000000 0.000000 0.000000
						}
					}
				}
				JOINT LeftShoulder
				{
					OFFSET 0.078845 0.121749 -0.034090
					CHANNELS 3 Zrotation Yrotation Xrotation
					JOINT LeftArm
					{
						OFFSET 0.090977 0.030469 -0.008868
						CHANNELS 3 Zrotation Yrotation Xrotation
						JOINT LeftForeArm
						{
							OFFSET 0.259612 -0.012772 -0.027456
							CHANNELS 3 Zrotation Yrotation Xrotation
							JOINT LeftHand
							{
								OFFSET 0.249234 0.008986 -0.001171
								CHANNELS 3 Zrotation Yrotation Xrotation
								End Site
								{
									OFFSET 0.000000 0.000000 0.000000
								}
							}
						}
					}
				}
				JOINT RightShoulder
				{
					OFFSET -0.081759 0.118833 -0.038615
					CHANNELS 3 Zrotation Yrotation Xrotation
					JOINT RightArm
					{
						OFFSET -0.096012 0.032551 -0.009143
						CHANNELS 3 Zrotation Yrotation Xrotation
						JOINT RightForeArm
						{
							OFFSET -0.253742 -0.013329 -0.021401
							CHANNELS 3 Zrotation Yrotation Xrotation
							JOINT RightHand
							{
								OFFSET -0.255298 0.007772 -0.005559
								CHANNELS 3 Zrotation Yrotation Xrotation
								End Site
								{
									OFFSET 0.000000 0.000000 0.000000
								}
							}
						}
					}
				}
			}
		}
	}
}
MOTION
Frames: 13
Frame Time: 0.050000
-0.208528 0.918845 0.162947 -4.762427 -0.622852 -3.873250 5.392537 0.273552 6.684933 -3.583312 0.119523 73.308405 0.315131 8.038207 22.763718 0.000000 0.000000 0.000000 13.817820 3.729439 -17.427474 1.129892 1.168930 40.119225 -8.991838 -21.083217 28.101218 0.000000 0.000000 0.000000 1.295383 -0.646202 12.317272 5.065288 -4.069812 17.902725 -1.149364 2.742756 -17.133944 0.736619 -0.346717 -2.667265 0.000000 0.000000 0.000000 -25.384731 -2.154323 -3.226361 -28.303185 11.695175 -4.152625 -102.069121 -41.427887 51.576801 0.000000 0.000000 0.000000 17.998403 1.388751 -0.968917 31.004132 -18.231406 -5.713659 101.034091 55.394268 67.748285 0.000000 0.000000 0.000000 
-0.212458 0.893978 0.148844 -4.457752 -1.981903 -5.315076 7.087161 -0.150051 -6.078686 -5.943462 3.792361 87.841276 3.599483 10.761236 13.422800 0.000000 0.000000 0.000000 14.518742 2.274842 -10.536016 -0.439870 1.845166 34.747761 -7.181477 -17.661878 0.929980 0.000000 0.000000 0.000000 0.631801 -0.807703 18.064352 2.791584 -2.144262 14.416291 -0.685309 9.029759 -15.668860 -0.567807 0.732740 -5.347284 0.000000 0.000000 0.000000 -24.612958 -1.726582 -4.962672 -27.647374 16.682243 -4.869267 -94.695854 -41.688882 44.720629 0.000000 0.000000 0.000000 20.405686 3.086043 1.288079 32.381070 -8.217886 -4.177462 106.060056 65.104596 86.202135 0.000000 0.000000 0.000000 
-0.213712 0.910743 0.139570 -2.529719 -2.396808 -4.554829 5.891300 -0.780136 -21.871105 -7.296450 5.954296 87.921915 5.928334 14.283345 13.118837 0.000000 0.000000 0.000000 11.877309 -0.451922 1.397558 -2.057829 1.194267 15.486802 -4.528893 -7.741441 -10.392173 0.000000 0.000000 0.000000 -1.494298 -0.464733 18.443644 0.625590 -0.559154 10.118168 -0.350486 15.439147 -11.368549 1.615553 -0.893119 -3.388678 0.000000 0.000000 0.000000 -23.045048 0.350010 -7.119925 -24.140106 19.768283 -4.733471 -92.416846 -39.620472 39.746689 0.000000 0.000000 0.000000 17.940664 3.460092 3.003824 36.025308 -0.958943 -3.434966 128.483987 68.242694 119.511059 0.000000 0.000000 0.000000 
-0.212958 0.951791 0.139814 0.124709 -2.777012 -2.350650 2.080726 -2.070863 -30.785602 -7.254104 4.899402 71.484216 5.763511 14.487874 18.097401 0.000000 0.000000 0.000000 8.243784 -2.188486 12.031475 -3.932712 0.522983 1.555203 -1.023098 -2.156973 -0.834100 0.000000 0.000000 0.000000 -4.180515 0.008243 16.203969 -1.789710 0.920108 9.113388 -1.247233 20.168799 -13.967130 5.082733 -4.088892 -0.715325 0.000000 0.000000 0.000000 -18.648196 2.608381 -7.667849 -20.693324 21.820049 -4.333212 -93.261573 -37.648745 37.151442 0.000000 0.000000 0.000000 17.004110 2.754203 3.500083 39.279283 2.868927 -2.537443 139.254187 65.116304 133.956921 0.000000 0.000000 0.000000 
-0.211542 0.996978 0.146762 0.794635 -2.774789 0.078792 -1.288477 -3.008401 -31.216601 -2.956106 0.552503 43.514780 2.048111 10.607222 26.485121 0.000000 0.000000 0.000000 6.408946 -2.951314 18.509979 -5.539778 0.608851 0.441225 1.644302 0.069239 7.021459 0.000000 0.000000 0.000000 -4.452004 0.056425 11.708556 -2.032554 1.070556 10.220414 -4.255687 23.132508 -16.598525 7.809512 -8.118230 4.164180 0.000000 0.000000 0.000000 -14.132475 3.451370 -6.833414 -20.211015 25.431483 -5.051926 -92.716249 -35.455317 33.073564 0.000000 0.000000 0.000000 17.037077 1.584400 3.729361 41.137630 4.871335 -2.010426 140.790693 61.603988 135.984092 0.000000 0.000000 0.000000 
-0.210355 1.021957 0.155896 0.501726 -1.828606 1.259265 -3.540234 -3.275542 -27.723040 1.240126 -0.868758 17.382438 -5.602755 8.069735 51.291825 0.000000 0.000000 0.000000 5.687133 -3.305239 21.419984 -5.741494 1.621284 10.879508 2.002031 -1.120400 11.374903 0.000000 0.000000 0.000000 -3.482622 -0.020275 6.888664 -5.837337 3.525385 14.975626 -2.008934 22.473817 -21.578041 7.922338 -9.606831 7.760110 0.000000 0.000000 0.000000 -12.594379 3.161771 -5.875170 -19.891795 28.385727 -5.487115 -93.322768 -32.447165 30.763460 0.000000 0.000000 0.000000 15.027732 1.208769 2.737400 42.714445 2.159119 -2.088739 140.161088 57.695657 130.210858 0.000000 0.000000 0.000000 
-0.209110 1.013648 0.162827 -0.733730 -1.017034 0.572679 -4.742720 -3.009745 -23.144496 2.436902 -0.635935 6.641543 -0.332220 16.678591 85.393679 0.000000 0.000000 0.000000 6.299288 -3.470880 21.291329 -3.649749 2.764222 30.094346 -0.460412 -8.414534 20.898921 0.000000 0.000000 0.000000 -3.520193 -0.016175 5.350474 -2.220622 1.111941 19.585425 -6.522724 21.451133 -24.034255 8.507362 -10.068427 7.266281 0.000000 0.000000 0.000000 -10.718010 3.471227 -5.307216 -22.304975 28.546791 -6.437163 -92.853697 -37.658144 35.347545 0.000000 0.000000 0.000000 15.076147 0.756141 2.758791 44.738909 2.252432 -1.983795 138.685499 55.528591 126.515686 0.000000 0.000000 0.000000 
-0.206549 0.972135 0.166072 -1.117862 -1.556816 -1.968920 -6.453596 -2.559184 -17.645576 1.433741 -0.854968 15.544080 8.493643 19.798101 78.657099 0.000000 0.000000 0.000000 3.695794 -2.062052 15.254554 1.567456 2.095662 57.678309 -2.682333 -13.040982 28.677496 0.000000 0.000000 0.000000 -3.403684 -0.067422 7.225172 -1.233823 0.490665 19.188639 -5.660130 19.034167 -20.967193 9.653104 -9.504638 4.515293 0.000000 0.000000 0.000000 -15.984826 1.925118 -6.641785 -21.198446 26.585593 -5.271730 -91.466877 -41.487360 39.968057 0.000000 0.000000 0.000000 15.632739 0.072136 1.864030 44.248549 -1.285960 -3.270730 129.851560 53.547724 108.836844 0.000000 0.000000 0.000000 
-0.204443 0.922741 0.159854 -0.812825 -1.923154 -5.066930 -7.862731 -1.936716 -12.034657 0.386333 -0.927311 26.863484 5.390327 15.001209 30.095818 0.000000 0.000000 0.000000 -0.416357 -0.489374 5.304149 5.982915 -0.683795 84.624584 -3.057404 -12.437370 21.518511 0.000000 0.000000 0.000000 -3.459442 -0.130057 12.161596 -1.501000 0.747034 20.240330 -4.400456 13.287692 -21.204097 8.182508 -6.592819 0.870374 0.000000 0.000000 0.000000 -23.349810 2.489281 -8.407440 -20.685387 18.628535 -3.454050 -94.040637 -44.142256 46.591816 0.000000 0.000000 0.000000 17.830089 -1.020752 0.076124 44.000780 -5.748688 -4.570203 114.370527 54.772045 85.851229 0.000000 0.000000 0.000000 
-0.204911 0.904327 0.149595 -0.928955 -0.885585 -6.377155 -9.261330 -0.415290 -2.248896 1.241252 -1.351716 27.268743 5.215530 5.887864 -16.732647 0.000000 0.000000 0.000000 -0.890479 0.940858 -10.041606 8.011425 -4.663719 99.217506 -5.064765 -15.199664 18.986584 0.000000 0.000000 0.000000 -2.433313 -0.327905 16.550943 1.743832 -1.600658 16.243044 -6.547496 6.870086 -18.386677 7.817793 -6.437072 2.317219 0.000000 0.000000 0.000000 -25.475125 -1.194597 -5.778868 -23.137756 12.730977 -3.041688 -102.162433 -49.362378 59.852675 0.000000 0.000000 0.000000 22.967838 -3.664385 -2.706537 37.390372 -13.296803 -6.064227 99.361650 49.543865 61.170424 0.000000 0.000000 0.000000 
-0.207007 0.925862 0.145161 -2.711225 -0.008170 -5.134831 -7.047403 1.495792 9.710926 3.913528 -1.787927 18.920993 4.149787 -1.803103 -22.319770 0.000000 0.000000 0.000000 0.913027 2.703915 -24.796804 9.809561 -7.666113 93.630924 -8.493068 -20.556503 19.071998 0.000000 0.000000 0.000000 0.836256 -0.794384 16.380261 2.163214 -1.636146 10.403926 -3.900037 -1.316199 -12.005841 5.048328 -3.847339 1.423305 0.000000 0.000000 0.000000 -25.258728 -0.260564 -3.240140 -26.692776 5.053510 -3.045202 -115.910869 -52.862463 80.549891 0.000000 0.000000 0.000000 20.353849 -3.692289 -4.460387 33.153216 -20.419452 -6.967031 93.122421 43.820282 46.389117 0.000000 0.000000 0.000000 
-0.209638 0.966433 0.147890 -5.232820 -0.209776 -2.032064 -2.961095 2.125569 17.951391 6.012695 -1.793924 12.663920 1.276620 -6.106883 -15.255198 0.000000 0.000000 0.000000 4.462130 4.541792 -32.399811 9.979647 -5.367210 69.611481 -10.880304 -24.021416 20.266657 0.000000 0.000000 0.000000 3.859672 -0.837760 10.906365 3.954868 -2.961414 13.762859 -2.210653 -6.146605 -15.787383 2.174276 -1.680273 5.440636 0.000000 0.000000 0.000000 -20.911044 1.005641 -2.137540 -31.666646 3.470221 -3.431369 -123.519855 -49.502537 87.574887 0.000000 0.000000 0.000000 13.816554 -4.971149 -4.796671 29.424574 -24.874341 -6.801555 90.300416 36.843132 35.190825 0.000000 0.000000 0.000000 
-0.212656 1.002836 0.154339 -5.738232 -0.204460 1.173593 -0.801752 2.048122 20.661301 5.655874 -1.847142 14.321892 -2.487730 -6.065939 -1.149754 0.000000 0.000000 0.000000 7.411363 5.121187 -31.370278 5.268562 -0.871291 38.868780 -7.885251 -19.676252 24.305608 0.000000 0.000000 0.000000 4.862188 -0.523232 5.442295 5.290663 -4.070055 16.882236 -1.277405 -6.924693 -18.743791 -0.336772 0.329372 6.538323 0.000000 0.000000 0.000000 -19.558196 -0.487066 -1.044291 -31.949162 3.649388 -3.369608 -127.435187 -46.144429 88.767451 0.000000 0.000000 0.000000 9.931076 -6.324532 -4.521385 26.377295 -29.085419 -6.788999 89.063729 32.764231 30.071715 0.000000 0.000000 0.000000 
